<svg width="132" height="74" viewBox="0 0 132 74" fill="none" xmlns="http://www.w3.org/2000/svg">
<rect width="132" height="74" rx="6" fill="#ECECEC"/>
<g clip-path="url(#clip0_50_83)">
<path d="M85 37C85 53.9715 83.1615 56 66.0699 56C48.9783 56 47.0036 53.8363 47.0036 37C47.0036 20.1637 49.5911 18 66.0699 18C82.5486 18 85 20.0285 85 37Z" fill="#B2B2B2"/>
<g clip-path="url(#clip1_50_83)">
<path d="M47.9199 48.6535L57.4018 34.9643L70.8858 44.3049L62.7897 55.9934C53.3438 55.766 49.4565 54.3444 47.9199 48.6535Z" fill="#E4E4E4"/>
<path fill-rule="evenodd" clip-rule="evenodd" d="M72.7996 44.8537C74.2329 43.5002 75.303 41.7017 74.966 40.1556C74.8697 39.4895 74.4932 38.9404 73.7146 38.3005C73.8234 37.4974 74.7295 35.9218 73.684 34.1524C73.5756 33.9675 73.4572 33.8039 73.3318 33.6589C72.8885 33.0521 72.2079 32.5907 71.4467 32.4249C70.6611 32.2543 70.1597 32.3862 69.6181 32.4391C69.4747 31.912 69.4264 31.3968 68.9889 30.7205C68.5905 30.1036 67.9687 29.6457 67.2912 29.4304C67.0683 29.3338 66.8204 29.2584 66.5467 29.2111C64.5072 28.8506 63.341 30.2647 62.6221 30.652C61.3067 29.8909 60.5002 29.9083 59.4073 30.5657C58.3535 31.1989 57.455 32.3822 56.9321 33.6252C53.2645 42.0032 65.3055 51.9311 72.8009 44.8552" fill="#E4E4E4"/>
<path fill-rule="evenodd" clip-rule="evenodd" d="M67.2716 39.3914C68.9708 40.9976 68.2817 42.7574 67.2002 43.3594C65.9344 44.0645 64.3102 43.3494 62.7848 42.2866C61.2372 41.2082 59.9971 40.0507 60.0941 38.5568C60.1505 37.6889 60.9229 36.9349 61.6331 36.7035C62.4054 36.4511 62.8856 36.5429 63.8365 37.0088C65.767 35.4571 68.0762 36.8126 67.2701 39.3927" fill="#B2B2B2"/>
<path fill-rule="evenodd" clip-rule="evenodd" d="M67.1739 31.5058C68.5553 33.399 65.8691 36.1526 64.5948 34.3588C64.1355 33.7136 64.2459 32.5575 64.8413 31.7835C65.4137 31.0405 66.5332 30.6271 67.1752 31.5059" fill="#B2B2B2"/>
<path fill-rule="evenodd" clip-rule="evenodd" d="M72.0522 34.8496C73.3037 36.4024 70.4579 39.0755 68.9828 37.4342C68.4176 36.8064 68.7877 35.6002 69.604 34.9309C70.2082 34.4352 71.4189 34.065 72.0522 34.8496Z" fill="#B2B2B2"/>
<path fill-rule="evenodd" clip-rule="evenodd" d="M73.2976 40.7785C74.2616 42.4024 71.0212 43.8942 70.0741 42.3486C69.1512 40.8421 72.2913 39.0837 73.2976 40.7785Z" fill="#B2B2B2"/>
<path fill-rule="evenodd" clip-rule="evenodd" d="M61.495 32.6125C62.7722 34.4876 60.6232 36.7399 59.4289 34.9431C58.2625 33.1912 60.2511 30.7842 61.495 32.6125Z" fill="#B2B2B2"/>
</g>
</g>
<defs>
<clipPath id="clip0_50_83">
<rect width="38" height="38" fill="white" transform="translate(47 18)"/>
</clipPath>
<clipPath id="clip1_50_83">
<rect width="28.2259" height="27.0071" fill="white" transform="translate(47.0001 28.9928)"/>
</clipPath>
</defs>
</svg>
